<!-- icon666.com - MILLIONS vector ICONS FREE --><svg version="1.1" id="Capa_1" xmlns="http://www.w3.org/2000/svg" xmlns:xlink="http://www.w3.org/1999/xlink" x="0px" y="0px" viewBox="0 0 512 512" style="enable-background:new 0 0 512 512;" xml:space="preserve"><path style="fill:#303C42;" d="M256,0C114.844,0,0,114.844,0,256s114.844,256,256,256s256-114.844,256-256S397.156,0,256,0z"></path><g><path style="fill:#FFFFFF;" d="M484.517,203.436l-62.757,8.97l-47.042-84.667l27.492-54.977 C442.897,105.293,472.458,151.021,484.517,203.436z"></path><polygon style="fill:#FFFFFF;" points="308.542,435.26 248.719,401.083 284.323,329.875 356.021,320.917 381.563,380.5 "></polygon><polygon style="fill:#FFFFFF;" points="227.754,395.303 133.531,404.727 86.505,329.486 114.329,255.288 208.415,245.879 264.846,321.121 "></polygon><polygon style="fill:#FFFFFF;" points="180.438,98.469 232.917,142.198 205.396,224.74 116.219,233.656 107.271,144.198 "></polygon></g><polygon style="fill:#616161;" points="356.311,299.379 282.148,308.65 225.216,232.738 253.242,148.66 356.72,139.254 403.624,223.68 "></polygon><path style="fill:#FFFFFF;" d="M384.732,60.017l-28.948,57.896l-107.01,9.728L192.97,81.138l9.98-53.53 c17.077-3.967,34.783-6.275,53.049-6.275C303.527,21.333,347.734,35.634,384.732,60.017z"></path><path style="fill:#616161;" d="M180.012,34.204l-8.311,44.572L92.944,128H59.572C87.921,84.646,130.194,51.326,180.012,34.204z"></path><path style="fill:#FFFFFF;" d="M47.238,149.333h39.108l9.457,94.579l-27.781,74.083l-40.75-10.249 C23.5,291.073,21.333,273.798,21.333,256C21.333,217.574,30.796,181.379,47.238,149.333z"></path><path style="fill:#616161;" d="M34.003,331.436l33.893,8.522l49.438,79.104v25.82C79.048,416.698,49.633,377.293,34.003,331.436z"></path><path style="fill:#FFFFFF;" d="M138.667,458.915v-33.262l93.672-9.367l66.328,37.902v32.401c-13.858,2.56-28.079,4.077-42.667,4.077 C213.236,490.667,173.232,478.982,138.667,458.915z"></path><path style="fill:#616161;" d="M320,481.569v-28.241l77.368-58.026l41.607,7.259C408.857,440.089,367.483,468.073,320,481.569z"></path><path style="opacity:0.1;enable-background:new ;" d="M320,481.569v-28.241l77.368-58.026l41.607,7.259 C408.857,440.089,367.483,468.073,320,481.569z"></path><path style="fill:#FFFFFF;" d="M452.842,383.319l-50.654-8.837l-27.523-64.223l47.747-76.397l65.879-9.41 c1.4,10.346,2.375,20.824,2.375,31.548C490.667,302.938,476.673,346.603,452.842,383.319z"></path><path style="opacity:0.1;enable-background:new ;" d="M298.667,486.59v-32.401l-41.246-23.57 c-17.602,4.23-35.874,6.715-54.754,6.715c-22.245,0-43.618-3.454-64-9.285v30.867c34.565,20.066,74.569,31.751,117.333,31.751 C270.587,490.667,284.809,489.15,298.667,486.59z"></path><path style="opacity:0.1;enable-background:new ;" d="M65.451,392.257c14.444,20.122,31.919,37.928,51.883,52.626V420.96 C98.724,413.621,81.395,403.872,65.451,392.257z"></path><path style="opacity:0.1;enable-background:new ;" d="M285.344,422.008l23.198,13.253l73.021-54.76l-7.668-17.888 C349.514,388.694,319.329,409.151,285.344,422.008z"></path><path style="opacity:0.1;enable-background:new ;" d="M490.667,256c0-10.724-0.975-21.202-2.375-31.548l-52.997,7.57 c-5.264,41.893-21.615,80.289-46.013,112.341l12.908,30.118l50.654,8.837C476.673,346.603,490.667,302.938,490.667,256z"></path><path style="opacity:0.1;enable-background:new ;" d="M484.517,203.436c-12.059-52.415-41.62-98.143-82.306-130.673l-1.991,3.98 c23.379,36.395,37.113,79.525,37.113,125.923c0,2.555-0.301,5.034-0.383,7.569L484.517,203.436z"></path><linearGradient id="SVGID_1_" gradientUnits="userSpaceOnUse" x1="-45.5784" y1="639.555" x2="-23.8278" y2="629.4138" gradientTransform="matrix(21.3333 0 0 -21.3333 996.3334 13791.667)"><stop offset="0" style="stop-color:#FFFFFF;stop-opacity:0.2"></stop><stop offset="1" style="stop-color:#FFFFFF;stop-opacity:0"></stop></linearGradient><path style="fill:url(#SVGID_1_);" d="M256,0C114.844,0,0,114.844,0,256s114.844,256,256,256s256-114.844,256-256S397.156,0,256,0z"></path></svg>