<!-- icon666.com - MILLIONS vector ICONS FREE --><svg viewBox="-3 0 512 512.00067" xmlns="http://www.w3.org/2000/svg"><path d="m29.359375 379.238281c-18.695313-35-29.3164062-74.949219-29.359375-117.375-.128906-136.597656 110.53125-248.761719 247.351562-250.597656 140.097657-1.882813 254.257813 110.929687 254.257813 250.355469 0 77.640625-35.410156 147.019531-90.976563 192.941406-3.667968 3.03125-8.929687 3.09375-12.652343.132812-63.734375-50.683593-155.898438-82.535156-258.421875-82.535156-35.464844 0-69.679688 3.828125-101.921875 10.914063-3.300781.722656-6.6875-.855469-8.277344-3.835938zm0 0" fill="#08b772"></path><path d="m29.226562 378.992188c-1.949218-16.011719-.96875-32.175782.859376-48.125 2.058593-17.988282 5.476562-35.707032 12.242187-52.648438 12.542969-31.40625 33.082031-60.132812 61.273437-82.925781 87.867188-71.042969 216.785157-57.523438 287.949219 30.195312 54.367188 67.015625 59.273438 157.949219 19.390625 228.820313-43.445312 36.027344-99.246094 57.691406-160.136718 57.691406-96.027344 0-179.433594-53.882812-221.578126-133.007812zm0 0" fill="#fde5bd"></path><path d="m410.851562 454.394531c-28.511718 23.617188-62.332031 41.050781-99.425781 50.242188-11.210937.691406-22.644531.457031-34.1875-.753907-112.453125-11.792968-194.035156-112.359374-182.222656-224.617187 4.296875-40.835937 20.398437-77.554687 44.507813-107.230469 34.089843-17.375 73.414062-25.46875 114.316406-21.179687 112.449218 11.792969 194.035156 112.355469 182.222656 224.617187-3.019531 28.675782-11.867188 55.316406-25.210938 78.921875zm0 0" fill="#fff5f5" style="fill: rgb(253, 229, 189);"></path><path d="m111.863281 345.09375c4.871094 6.003906 5.316407 14.453125 1.101563 20.933594l-43.039063 66.167968c-.367187.566407-.773437 1.097657-1.195312 1.609376-15.503907-16.332032-28.828125-34.777344-39.503907-54.8125-4.144531-34.085938.320313-68.792969 13.101563-100.773438 7.089844-2.46875 15.046875-.289062 19.796875 5.566406zm100.328125 126.332031c-4.867187-6.003906-13.054687-8.195312-20.277344-5.425781l-52.367187 20.070312c17.605469 8.714844 36.367187 15.4375 56.023437 19.847657 15.96875 3.585937 32.539063 5.636719 49.496094 6.015625zm0 0" fill="#82665c"></path><path d="m212.191406 471.425781 17.578125 21.664063c-16.722656-5.949219-32.386719-13.9375-46.679687-23.707032l8.820312-3.382812c7.226563-2.769531 15.414063-.578125 20.28125 5.425781zm-116.847656-146.695312c2.027344 17.167969 6.207031 33.757812 12.300781 49.476562l5.320313-8.179687c4.210937-6.476563 3.769531-14.925782-1.101563-20.929688zm321.742188 56.777343-73.777344 28.277344c-7.222656 2.769532-11.839844 9.867188-11.433594 17.582032l3.675781 69.980468c27.671875-9.917968 53.21875-24.675781 75.414063-43.058594 12.320312-21.828124 20.285156-45.421874 23.945312-69.789062-4.898437-4.074219-11.703125-5.335938-17.824218-2.992188zm-113.980469-69.386718c-.40625-7.714844-5.742188-14.292969-13.214844-16.289063l-76.335937-20.417969c-7.476563-2-15.386719 1.035157-19.601563 7.511719l-43.039063 66.171875c-4.210937 6.476563-3.769531 14.929688 1.101563 20.929688l49.738281 61.3125c4.867188 6 13.054688 8.191406 20.28125 5.421875l73.777344-28.277344c7.222656-2.769531 11.839844-9.867187 11.433594-17.578125zm0 0" fill="#95776c"></path><path d="m505.09375 121.027344c-2.390625 8.902344-9.789062 15.128906-18.355469 16.476562l-41.996093 131.164063c12.207031 3.734375 19.351562 16.480469 16.019531 28.890625-3.40625 12.691406-16.46875 20.222656-29.179688 16.820312l-351.675781-94.070312c-12.710938-3.402344-20.253906-16.445313-16.847656-29.132813 3.332031-12.414062 15.902344-19.882812 28.34375-17.023437l29.578125-135.730469c-5.410157-5.519531-7.847657-13.667969-5.703125-21.667969 3.238281-12.054687 15.648437-19.207031 27.726562-15.980468 12.074219 3.230468 19.242188 15.625 16.003906 27.679687-1.027343 3.832031-2.988281 7.167969-5.566406 9.832031l51.132813 97.664063c3.164062 6.050781 11.269531 7.355469 16.1875 2.613281l88.605469-91.675781c-5.210938-5.511719-7.523438-13.511719-5.414063-21.371094 3.234375-12.054687 15.644531-19.207031 27.722656-15.976563 12.074219 3.230469 19.242188 15.621094 16.003907 27.675782-2.101563 7.832031-8.074219 13.589844-15.316407 15.78125l19.144531 119.65625c1.835938 6.617187 9.554688 9.582031 15.359376 5.898437l94.03125-59.667969c-.515626-3.089843-.402344-6.332031.464843-9.554687 3.234375-12.054687 15.644531-19.207031 27.722657-15.976563 12.074218 3.230469 19.242187 15.621094 16.007812 27.675782zm0 0" fill="#fdbf43"></path><path d="m486.738281 137.503906-37.121093 115.929688-253.699219-67.863282c-34.667969-9.273437-59.246094-40-60.640625-75.800781l-2.324219-59.824219c-.101563-2.613281 2.011719-4.734374 4.632813-4.738281 6.054687-.015625 11.671874-2.738281 15.855468-6.921875l51.0625 97.53125c1.441406 2.753906 3.890625 4.523438 6.617188 5.1875l-.003906.007813 23.558593 6.300781c19.660157 5.257812 40.207031-4.695312 48.230469-23.367188l31.964844-68.308593c.957031-2.046875 3.253906-3.042969 5.433594-2.453125.011718.003906.027343.007812.039062.011718 4.074219 1.085938 8.238281.863282 12.023438-.199218l19.15625 119.699218c1.050781 3.789063 3.933593 6.203126 7.378906 7.035157v.003906l25.632812 6.859375c17.535156 4.691406 36.242188-.242188 49.171875-12.960938l36.949219-36.347656c1.292969-1.273437 3.207031-1.632812 4.90625-.984375.710938.269531 1.441406.507813 2.191406.707031 3 .800782 6.085938.890626 8.984375.496094zm-343.734375-136.726562c-2.328125-.625-4.667968-.855469-6.953125-.746094-1.238281 1.917969-2.207031 4.058594-2.832031 6.382812-3.234375 12.054688 3.933594 24.445313 16.007812 27.675782 2.328126.625 4.667969.855468 6.953126.746094 1.238281-1.921876 2.203124-4.058594 2.828124-6.382813 3.238282-12.054687-3.929687-24.445313-16.003906-27.675781zm362.089844 120.25c-.625 2.324218-1.59375 4.464844-2.832031 6.382812-2.285157.109375-4.621094-.121094-6.949219-.746094-12.078125-3.226562-19.242188-15.621093-16.007812-27.675781.625-2.324219 1.589843-4.460937 2.832031-6.382812 2.28125-.109375 4.621093.125 6.949219.746093 12.074218 3.230469 19.242187 15.621094 16.007812 27.675782zm-157.410156-83.8125c-.625 2.324218-1.59375 4.464844-2.832032 6.382812-2.285156.109375-4.621093-.121094-6.949218-.746094-12.078125-3.230468-19.242188-15.621093-16.007813-27.675781.625-2.324219 1.59375-4.460937 2.832031-6.382812 2.285157-.109375 4.621094.125 6.949219.746093 12.074219 3.230469 19.242188 15.621094 16.007813 27.675782zm-247.722656 155.074218c-2.195313 8.179688 2.664062 16.585938 10.855468 18.773438l347.183594 92.871094c1.199219-1.929688 2.140625-4.066406 2.761719-6.375 3.40625-12.691406-4.136719-25.734375-16.847657-29.132813l-325.148437-86.976562c-8.191406-2.1875-16.613281 2.664062-18.804687 10.839843zm0 0" fill="#fdd78d"></path></svg>