<!-- icon666.com - MILLIONS vector ICONS FREE --><svg id="Layer_1" enable-background="new 0 0 256 256" viewBox="0 0 256 256" xmlns="http://www.w3.org/2000/svg"><g><g><circle cx="166.943" cy="88.613" fill="#e0ebfc" r="80.613"></circle></g><g><circle cx="166.943" cy="88.613" fill="#e0ebfc" r="80.613"></circle></g><g><circle cx="166.943" cy="88.613" fill="#e0ebfc" r="80.613"></circle></g><g><path d="m11.035 232.896 62.564-62.564c3.455-3.455 9.057-3.455 12.513 0 3.455 3.455 3.455 9.057 0 12.513l-62.564 62.564c-3.455 3.455-9.057 3.455-12.513 0-3.456-3.456-3.456-9.058 0-12.513z" fill="#6bdddd"></path></g><g><path d="m66.095 227.886 46.432-46.432c3.455-3.455 9.057-3.455 12.513 0 3.455 3.455 3.455 9.057 0 12.513l-46.432 46.432c-3.455 3.455-9.057 3.455-12.513 0-3.455-3.455-3.455-9.058 0-12.513z" fill="#6bdddd"></path></g><g><path d="m16.044 177.835 46.432-46.432c3.455-3.455 9.057-3.455 12.513 0 3.455 3.455 3.455 9.057 0 12.513l-46.432 46.432c-3.455 3.455-9.057 3.455-12.513 0-3.455-3.455-3.455-9.057 0-12.513z" fill="#6bdddd"></path></g><g><circle cx="166.943" cy="88.613" fill="#e0ebfc" r="80.613"></circle></g><g><circle cx="166.943" cy="88.613" fill="#e0ebfc" r="80.613"></circle></g><g><circle cx="166.943" cy="88.613" fill="#e0ebfc" r="80.613"></circle></g><g><circle cx="166.943" cy="88.613" fill="#e0ebfc" r="80.613"></circle></g><g><circle cx="166.943" cy="88.613" fill="#e0ebfc" r="80.613"></circle></g><g><path d="m134.197 88.324c-.228 0-.458-.039-.684-.121l-26.201-9.536c-1.038-.378-1.573-1.525-1.195-2.563s1.526-1.571 2.563-1.195l26.201 9.536c1.038.378 1.573 1.525 1.195 2.563-.295.811-1.062 1.316-1.879 1.316z" fill="#3762cc"></path></g><g><path d="m199.76 88.324c-.817 0-1.584-.504-1.879-1.316-.378-1.038.157-2.186 1.195-2.563l26.202-9.537c1.041-.377 2.186.158 2.563 1.195.378 1.038-.157 2.186-1.195 2.563l-26.202 9.537c-.225.082-.457.121-.684.121z" fill="#3762cc"></path></g><g><path d="m200.794 145.199c-.631 0-1.251-.297-1.64-.853l-15.763-22.513c-.634-.905-.414-2.152.491-2.785.906-.634 2.152-.414 2.785.491l15.763 22.513c.634.905.414 2.152-.491 2.785-.349.245-.749.362-1.145.362z" fill="#3762cc"></path></g><g><path d="m133.313 145.199c-.396 0-.796-.117-1.145-.362-.905-.633-1.125-1.88-.491-2.785l15.764-22.513c.634-.905 1.88-1.125 2.785-.491.905.633 1.125 1.88.491 2.785l-15.764 22.513c-.39.556-1.01.853-1.64.853z" fill="#3762cc"></path></g><g><path d="m167.024 59.461c-1.104 0-2-.896-2-2v-27.882c0-1.104.896-2 2-2s2 .896 2 2v27.882c0 1.104-.896 2-2 2z" fill="#3762cc"></path></g><g><path d="m164.384 58.447-28.83 25.325c-1.287 1.13-1.711 2.954-1.056 4.536l12.627 30.482c.619 1.495 2.078 2.469 3.695 2.469h16.203 16.203c1.618 0 3.076-.975 3.695-2.469l12.627-30.482c.655-1.582.231-3.406-1.056-4.536l-28.83-25.325c-1.508-1.326-3.768-1.326-5.278 0z" fill="#4671c6"></path></g><g><path d="m183.227 123.26h-32.405c-2.436 0-4.611-1.454-5.543-3.704l-12.629-30.482c-.983-2.375-.347-5.108 1.583-6.804l28.831-25.325c2.257-1.983 5.662-1.983 7.919 0l28.83 25.325c1.931 1.696 2.567 4.43 1.583 6.804l-12.627 30.482c-.932 2.25-3.107 3.704-5.542 3.704zm-17.523-63.31-28.831 25.325c-.644.565-.855 1.477-.528 2.268l12.627 30.482c.311.75 1.036 1.235 1.848 1.235h32.405c.812 0 1.537-.485 1.848-1.235l12.627-30.482c.328-.791.116-1.702-.528-2.267l-28.83-25.326c-.751-.66-1.885-.66-2.638 0z" fill="#3762cc"></path></g><g><path d="m195.045 164.184c11.132-4.141 21.097-10.671 29.281-18.967l-20.742-2.696c-2.054-.267-3.972 1.078-4.421 3.1z" fill="#4671c6"></path></g><g><path d="m130.523 142.521-20.938 2.722c8.239 8.345 18.28 14.905 29.499 19.037l-4.14-18.658c-.449-2.023-2.367-3.368-4.421-3.101z" fill="#4671c6"></path></g><g><path d="m86.347 89.274 19.726-10.273c1.837-.957 2.64-3.158 1.85-5.072l-10.654-25.844c-7.045 12.085-11.056 26.156-10.936 41.18.007.005.006.004.014.009z" fill="#4671c6"></path></g><g><path d="m236.659 48.157-10.625 25.771c-.789 1.915.013 4.116 1.85 5.072l19.657 10.237c.007-.004.006-.004.013-.008.113-14.981-3.881-29.013-10.895-41.072z" fill="#4671c6"></path></g><g><path d="m145.155 11.004 19.131 17.524c1.527 1.399 3.87 1.401 5.399.004l19.158-17.497c-6.966-1.962-14.306-3.035-21.9-3.035-7.553 0-14.855 1.061-21.788 3.004z" fill="#4671c6"></path></g><g><path d="m195.045 166.184c-.476 0-.944-.169-1.314-.492-.553-.481-.798-1.226-.639-1.941l4.119-18.563c.678-3.055 3.533-5.051 6.631-4.65l20.742 2.696c.753.098 1.386.614 1.633 1.333s.066 1.515-.467 2.056c-8.435 8.55-18.812 15.271-30.008 19.437-.226.083-.463.124-.697.124zm8.017-21.697c-.928 0-1.739.637-1.945 1.567l-3.299 14.867c8.068-3.458 15.604-8.316 22.12-14.258l-16.611-2.159c-.09-.011-.178-.017-.265-.017z" fill="#3762cc"></path></g><g><path d="m139.083 166.279c-.232 0-.466-.041-.691-.123-11.276-4.153-21.73-10.899-30.231-19.509-.534-.541-.715-1.337-.468-2.056s.88-1.235 1.633-1.333l20.938-2.721c3.102-.403 5.954 1.596 6.631 4.65l4.14 18.658c.158.714-.086 1.458-.637 1.939-.368.325-.838.495-1.315.495zm-25.106-19.591c6.58 5.996 14.19 10.883 22.338 14.343l-3.323-14.977c-.226-1.018-1.166-1.683-2.21-1.55zm16.546-4.167h.01z" fill="#3762cc"></path></g><g><path d="m86.347 91.274c-.354 0-.708-.094-1.023-.282-.031-.019-.071-.043-.1-.063-.552-.368-.885-.985-.891-1.648-.118-14.829 3.758-29.422 11.208-42.203.383-.656 1.108-1.04 1.865-.988.759.052 1.422.53 1.712 1.233l10.655 25.843c1.192 2.892 0 6.163-2.775 7.609l-19.727 10.273c-.291.151-.608.226-.924.226zm10.666-38.562c-5.291 10.291-8.245 21.655-8.638 33.251l16.774-8.736c.925-.482 1.322-1.572.925-2.537z" fill="#3762cc"></path></g><g><path d="m247.541 91.237c-.317 0-.634-.075-.924-.226l-19.657-10.236c-2.775-1.446-3.968-4.717-2.775-7.609l10.625-25.771c.29-.704.954-1.182 1.713-1.233s1.482.332 1.865.99c7.416 12.752 11.277 27.307 11.167 42.093-.005.697-.373 1.341-.971 1.7-.029.018-.072.042-.101.058-.295.156-.618.234-.942.234zm-10.628-38.448-9.029 21.902c-.397.964 0 2.055.925 2.537l16.702 8.698c-.398-11.553-3.338-22.879-8.598-33.137z" fill="#3762cc"></path></g><g><path d="m166.988 31.59c-1.449 0-2.898-.529-4.053-1.586l-19.131-17.525c-.535-.49-.763-1.232-.594-1.938.168-.707.707-1.266 1.406-1.462 14.618-4.096 30.158-4.085 44.77.032.699.197 1.236.757 1.404 1.463s-.062 1.449-.598 1.938l-19.158 17.497c-1.154 1.054-2.6 1.581-4.046 1.581zm-17.757-19.564 16.405 15.028c.769.705 1.93.706 2.699.002l16.429-15.004c-11.671-2.718-23.856-2.725-35.533-.026z" fill="#3762cc"></path></g><g><path d="m166.943 171.227c-45.553 0-82.613-37.061-82.613-82.614s37.06-82.613 82.613-82.613 82.613 37.06 82.613 82.613-37.059 82.614-82.613 82.614zm0-161.227c-43.347 0-78.613 35.266-78.613 78.613s35.266 78.614 78.613 78.614 78.613-35.266 78.613-78.614-35.265-78.613-78.613-78.613z" fill="#3762cc"></path></g></g></svg>